<svg width="456" height="375" viewBox="0 0 456 375" fill="none" xmlns="http://www.w3.org/2000/svg">
<path d="M3.84412 243.003L146.344 101.003L241.844 6.50324C249.563 0.0310011 253.523 -0.639879 261.844 4.00324L289.344 31.5032C293.326 40.0705 292.155 43.7262 289.344 50.0032L50.8441 288.003C42.2528 293.412 37.4355 292.48 28.8441 288.003L3.84412 263.003C0.749623 254.72 -0.587239 250.137 3.84412 243.003Z" fill="#285598"/>
<path d="M196.844 214.003C183.344 229.003 86.3441 325.003 86.3441 325.003C81.011 331.843 81.7113 336.89 86.3441 347.003L111.844 371.003C120.514 374.887 125.411 375.525 134.344 368.503L204.344 299.003C210.395 293.067 213.792 292.876 219.844 299.003L279.844 358.003C289.391 367.185 294.994 367.594 305.344 361.503L328.844 336.003C332.786 330.376 334.087 326.762 330.844 317.503C330.844 317.503 237.344 226.003 226.344 214.003C215.344 202.003 210.344 199.003 196.844 214.003Z" fill="#285598"/>
<path d="M3.84412 243.003L146.344 101.003L241.844 6.50324C249.563 0.0310011 253.523 -0.639879 261.844 4.00324L289.344 31.5032C293.326 40.0705 292.155 43.7262 289.344 50.0032L50.8441 288.003C42.2528 293.412 37.4355 292.48 28.8441 288.003L3.84412 263.003C0.749623 254.72 -0.587239 250.137 3.84412 243.003Z" stroke="#2B5CA5"/>
<path d="M196.844 214.003C183.344 229.003 86.3441 325.003 86.3441 325.003C81.011 331.843 81.7113 336.89 86.3441 347.003L111.844 371.003C120.514 374.887 125.411 375.525 134.344 368.503L204.344 299.003C210.395 293.067 213.792 292.876 219.844 299.003L279.844 358.003C289.391 367.185 294.994 367.594 305.344 361.503L328.844 336.003C332.786 330.376 334.087 326.762 330.844 317.503C330.844 317.503 237.344 226.003 226.344 214.003C215.344 202.003 210.344 199.003 196.844 214.003Z" stroke="#2B5CA5"/>
<path d="M257.344 154.003L283.844 126.503C291.367 123.798 295.427 123.145 301.844 126.503L451.344 275.503C456.417 283.705 456.191 288.302 451.344 296.503L430.344 318.503C421.19 326.088 415.744 326.95 405.344 321.003L257.344 172.503C253.462 165.279 252.057 161.228 257.344 154.003Z" fill="#285598" stroke="#2B5CA5"/>
</svg>
